<svg width="128" height="128" viewBox="0 0 128 128" fill="none" xmlns="http://www.w3.org/2000/svg">
<g clip-path="url(#clip0)">
<path d="M63.3173 83.9039L56.1066 91.1145C55.7082 91.507 55.1726 91.7289 54.6133 91.7332H49.0666C47.8899 91.7367 46.9368 92.6898 46.9333 93.8665V99.4132C46.929 99.9724 46.7071 100.508 46.3146 100.907L45.44 101.781C45.0415 102.174 44.5059 102.396 43.9466 102.4H38.4C37.2232 102.403 36.2701 103.356 36.2666 104.533V110.059C36.2623 110.618 36.0404 111.153 35.648 111.552L34.752 112.448C34.3535 112.84 33.8179 113.062 33.2586 113.067H27.7333C26.5566 113.07 25.6035 114.023 25.6 115.2V120.725C25.5956 121.284 25.3737 121.82 24.9813 122.219L22.592 124.608C21.7894 125.413 20.6995 125.866 19.5626 125.867H4.26663C3.08989 125.863 2.13682 124.91 2.1333 123.733V108.437C2.13385 107.3 2.58671 106.21 3.39197 105.408L44.1173 64.7039L51.584 68.2239L52.2026 68.5225L55.232 71.5519L63.3173 83.9039Z" fill="#8CC4F9"/>
<path d="M125.966 43.9476C124.986 64.3724 107.792 80.9645 85.7654 82.7406H85.6502C81.6811 83.0315 77.6876 82.8235 73.7789 82.1225C72.3728 81.8667 70.9897 84.8508 69.6297 84.4671C68.8138 84.24 67.9289 84.4446 67.3246 85L65.3192 83.5719L44.3658 64.1967C43.492 63.4011 43 62.3146 43 61.1807C43 60.0467 43.492 58.9602 44.3658 58.1646L46.5787 56.1184C47.1794 55.5596 47.4006 54.7414 47.155 53.9869C45.582 49.1559 45.0034 44.0949 45.4492 39.0665C47.3157 19.3221 64.2702 3.68053 85.6271 2C109.072 3.70061 126.88 22.2184 125.966 43.9476Z" fill="#8CC4F9"/>
<path d="M10.9274 100.893C11.7607 100.06 11.761 98.7095 10.9281 97.8762C10.0952 97.0429 8.74447 97.0425 7.91114 97.8754C7.0778 98.7083 7.07743 100.059 7.91029 100.892C8.31027 101.293 8.85285 101.517 9.41866 101.518C9.98448 101.518 10.5272 101.293 10.9274 100.893Z" fill="#0303DD"/>
<path d="M4.26667 127.999H19.5656C21.2642 128.004 22.8941 127.328 24.0917 126.124L26.4833 123.732C27.2863 122.934 27.7364 121.848 27.7333 120.716V115.199H33.25C34.3822 115.202 35.4685 114.752 36.2667 113.949L37.15 113.065C37.9529 112.267 38.4031 111.181 38.4 110.049V104.532H43.9375C45.0697 104.535 46.156 104.085 46.9542 103.282L47.8167 102.42C48.6196 101.621 49.0697 100.535 49.0667 99.403V93.8655H54.6042C55.7363 93.8685 56.8226 93.4184 57.6208 92.6155L63.5346 86.7025C66.0013 88.0364 69.0522 87.5834 71.025 85.5905L73.0927 83.5405C78.18 85.0713 83.5096 85.6324 88.8042 85.1947C110.222 83.2447 126.929 65.8131 127.969 44.3321C128.431 32.448 123.912 20.9103 115.503 12.5C107.094 4.08972 95.5571 -0.430091 83.6729 0.0300413C62.1901 1.06535 44.7547 17.7724 42.8042 39.1915C42.3655 44.4885 42.9324 49.8207 44.475 54.9071L42.4083 56.9738C40.4298 58.9661 39.9844 62.0169 41.3107 64.4917L13.9468 91.8419C13.4015 92.3794 13.1861 93.1679 13.3824 93.908C13.5787 94.6481 14.1565 95.2262 14.8965 95.4229C15.6365 95.6196 16.4251 95.4046 16.9629 94.8596L44.11 67.7266L48.5595 72.176L11.2917 109.423C10.4662 110.257 10.4696 111.602 11.2993 112.432C12.129 113.262 13.4734 113.266 14.3084 112.441L51.5773 75.1937L60.2938 83.9103L54.6042 89.5988H49.0667C46.7112 89.6012 44.8024 91.51 44.8 93.8655V99.403L43.9375 100.265H38.4C36.0446 100.268 34.1357 102.177 34.1333 104.532V110.049L33.25 110.932H27.7333C25.3779 110.935 23.469 112.843 23.4667 115.199V120.716L21.075 123.107C20.6755 123.509 20.132 123.734 19.5656 123.732H4.26667V108.433C4.26863 107.867 4.49317 107.325 4.89173 106.924C5.72478 106.091 5.72478 104.74 4.89173 103.907C4.05869 103.074 2.70805 103.074 1.87501 103.907C0.678508 105.11 0.00475753 106.736 0 108.433V123.732C0.00235191 126.088 1.91123 127.996 4.26667 127.999ZM45.4251 59.9905L47.4917 57.9238C48.6001 56.8087 49.0038 55.1735 48.5417 53.6707C47.1675 49.0906 46.6644 44.2935 47.0584 39.528C48.8148 20.2551 64.505 5.22349 83.8354 4.29462C84.3448 4.27482 84.8524 4.2651 85.3583 4.26546C95.7986 4.27447 105.785 8.53317 113.019 16.0611C120.253 23.589 124.111 33.7373 123.704 44.1696C122.771 63.4984 107.739 79.1851 88.4677 80.9405C83.7028 81.3366 78.9059 80.8331 74.3271 79.4561C72.8244 78.9948 71.1897 79.3988 70.075 80.5071L68.0083 82.5738C67.1737 83.404 65.8252 83.404 64.9906 82.5738L64.8555 82.4387C64.8431 82.4256 64.8388 82.4074 64.826 82.3947L53.0958 70.6644L53.0937 70.6613L53.0906 70.6592L45.626 63.1947C45.6132 63.1819 45.5955 63.1781 45.5825 63.1657L45.425 63.0082C44.5938 62.174 44.5938 60.8246 45.4251 59.9905Z" fill="#0303DD"/>
<circle cx="96" cy="32" r="9.5" fill="#418D72" stroke="#0303DD" stroke-width="3"/>
</g>
<defs>
<clipPath id="clip0">
<rect width="128" height="128" fill="white"/>
</clipPath>
</defs>
</svg>
