<svg width="113" height="158" viewBox="0 0 113 158" fill="none" xmlns="http://www.w3.org/2000/svg">
<path opacity="0.6" d="M56.6653 0.0718994L12.6802 73.4724L57.1105 99.7218L100.837 73.4724C86.1228 48.9768 71.3988 24.51 56.6653 0.0718994Z" fill="#8CC4F9"/>
<path d="M0 77.5402L56.6077 157.352L113 77.5402L56.7226 110.992L0 77.5402Z" fill="#8DE6A9"/>
<path d="M57.1099 99.547L13.0065 73.4908L57.11 53.7988L100.515 73.4908L57.1099 99.547Z" fill="#283ECB" fill-opacity="0.72" stroke="#E1F0E9" stroke-width="0.3"/>
<path d="M56.7368 110.92V157.079" stroke="white" stroke-width="0.75" stroke-miterlimit="10"/>
<path opacity="0.6" d="M22.043 22.4253C18.9316 39.4361 15.8107 56.4517 12.6802 73.4721L57.1105 99.7215L22.043 22.4253Z" fill="#1E2FD4"/>
<path opacity="0.6" d="M92.1774 22.4253L100.793 73.4721L57.1099 99.7215L92.1774 22.4253Z" fill="#1E2FD4"/>
<path d="M56.665 0L57.1102 53.6344" stroke="white" stroke-width="0.2" stroke-miterlimit="10"/>
</svg>
