<svg width="136" height="136" viewBox="0 0 136 136" fill="none" xmlns="http://www.w3.org/2000/svg">
<path d="M110.5 82.875C112.847 82.875 114.75 80.9722 114.75 78.625C114.75 76.2778 112.847 74.375 110.5 74.375C108.153 74.375 106.25 76.2778 106.25 78.625C106.25 80.9722 108.153 82.875 110.5 82.875Z" fill="#8CC4F9"/>
<path d="M99.875 72.25V85C99.8784 86.1261 100.327 87.2052 101.124 88.0015C101.92 88.7978 102.999 89.2466 104.125 89.25H121.125V99.875H4.25V59.5H121.125V68H104.125C102.999 68.0034 101.92 68.4522 101.124 69.2485C100.327 70.0448 99.8784 71.1239 99.875 72.25Z" fill="#8CC4F9"/>
<path d="M59.84 40.375C58.1887 44.1643 55.4673 47.3891 52.0097 49.6541C48.552 51.919 44.5085 53.1254 40.375 53.1254C36.2416 53.1254 32.1981 51.919 28.7404 49.6541C25.2827 47.3891 22.5613 44.1643 20.91 40.375H34L40.375 46.75L46.75 40.375H59.84Z" fill="#8CC4F9"/>
<path d="M110.5 82.875C112.847 82.875 114.75 80.9722 114.75 78.625C114.75 76.2778 112.847 74.375 110.5 74.375C108.153 74.375 106.25 76.2778 106.25 78.625C106.25 80.9722 108.153 82.875 110.5 82.875Z" fill="#8CC4F9"/>
<path d="M110.5 82.875C112.847 82.875 114.75 80.9722 114.75 78.625C114.75 76.2778 112.847 74.375 110.5 74.375C108.153 74.375 106.25 76.2778 106.25 78.625C106.25 80.9722 108.153 82.875 110.5 82.875Z" fill="#8CC4F9"/>
<path d="M40.375 10.625C34.7392 10.625 29.3341 12.8638 25.349 16.849C21.3639 20.8341 19.125 26.2392 19.125 31.875C19.1211 34.8018 19.7291 37.697 20.91 40.375C22.5613 44.1643 25.2827 47.3891 28.7404 49.6541C32.198 51.919 36.2416 53.1254 40.375 53.1254C44.5084 53.1254 48.552 51.919 52.0097 49.6541C55.4673 47.3891 58.1887 44.1643 59.84 40.375C61.0209 37.697 61.6289 34.8018 61.625 31.875C61.625 29.0844 61.0754 26.3211 60.0075 23.743C58.9396 21.1648 57.3743 18.8222 55.401 16.849C53.4278 14.8757 51.0852 13.3105 48.507 12.2426C45.9289 11.1746 43.1656 10.625 40.375 10.625ZM40.375 46.75L25.5 31.875L40.375 17L55.25 31.875L40.375 46.75Z" fill="#8CC4F9"/>
<path d="M28.2477 40.9977C28.0447 41.1937 27.8828 41.4282 27.7714 41.6874C27.6601 41.9467 27.6015 42.2255 27.599 42.5077C27.5965 42.7898 27.6503 43.0697 27.7572 43.3308C27.864 43.592 28.0218 43.8292 28.2213 44.0288C28.4208 44.2283 28.6581 44.3861 28.9193 44.4929C29.1804 44.5998 29.4602 44.6535 29.7424 44.6511C30.0245 44.6486 30.3034 44.59 30.5626 44.4786C30.8219 44.3673 31.0564 44.2054 31.2524 44.0024L32.9375 42.3173L38.8727 48.2524C39.2712 48.6508 39.8116 48.8746 40.375 48.8746C40.9385 48.8746 41.4789 48.6508 41.8774 48.2524L47.8125 42.3173L49.4977 44.0024C49.8984 44.3895 50.4352 44.6037 50.9924 44.5988C51.5496 44.594 52.0825 44.3705 52.4765 43.9765C52.8705 43.5825 53.094 43.0496 53.0988 42.4924C53.1037 41.9352 52.8895 41.3984 52.5024 40.9977L50.8173 39.3125L56.7524 33.3774C57.1508 32.9789 57.3746 32.4385 57.3746 31.875C57.3746 31.3116 57.1508 30.7712 56.7524 30.3727L50.8173 24.4375L52.5024 22.7524C52.8895 22.3516 53.1037 21.8149 53.0988 21.2577C53.094 20.7005 52.8705 20.1675 52.4765 19.7735C52.0825 19.3796 51.5496 19.1561 50.9924 19.1512C50.4352 19.1464 49.8984 19.3606 49.4977 19.7477L47.8125 21.4328L41.8774 15.4977C41.4789 15.0993 40.9385 14.8755 40.375 14.8755C39.8116 14.8755 39.2712 15.0993 38.8727 15.4977L32.9375 21.4328L31.2524 19.7477C30.8516 19.3606 30.3149 19.1464 29.7577 19.1512C29.2005 19.1561 28.6675 19.3796 28.2735 19.7735C27.8796 20.1675 27.6561 20.7005 27.6512 21.2577C27.6464 21.8149 27.8606 22.3516 28.2477 22.7524L29.9328 24.4375L23.9977 30.3727C23.5993 30.7712 23.3755 31.3116 23.3755 31.875C23.3755 32.4385 23.5993 32.9789 23.9977 33.3774L29.9328 39.3125L28.2477 40.9977ZM40.375 20.0048L52.2453 31.875L40.375 43.7453L28.5048 31.875L40.375 20.0048Z" fill="#0303DD"/>
<path d="M131.75 65.875H123.25V40.375C123.25 39.8114 123.026 39.2709 122.628 38.8724C122.229 38.4739 121.689 38.25 121.125 38.25H62.8447C63.8424 34.7704 64.0182 31.1066 63.3585 27.5474C62.6987 23.9882 61.2213 20.6309 59.0428 17.7401C56.8643 14.8492 54.0442 12.5038 50.8047 10.8887C47.5652 9.27355 43.9948 8.43286 40.375 8.43286C36.7552 8.43286 33.1848 9.27355 29.9453 10.8887C26.7058 12.5038 23.8857 14.8492 21.7072 17.7401C19.5287 20.6309 18.0513 23.9882 17.3915 27.5474C16.7318 31.1066 16.9076 34.7704 17.9052 38.25H12.75C9.93311 38.2534 7.23256 39.3739 5.24072 41.3657C3.24887 43.3575 2.12837 46.0581 2.125 48.875V108.375C2.12837 111.192 3.24887 113.892 5.24072 115.884C7.23256 117.876 9.93311 118.997 12.75 119H121.125C121.689 119 122.229 118.776 122.628 118.378C123.026 117.979 123.25 117.439 123.25 116.875V91.375H131.75C132.314 91.375 132.854 91.1511 133.253 90.7526C133.651 90.3541 133.875 89.8136 133.875 89.25V68C133.875 67.4364 133.651 66.8959 133.253 66.4974C132.854 66.0989 132.314 65.875 131.75 65.875ZM40.375 12.75C44.1576 12.75 47.8552 13.8716 51.0003 15.9731C54.1454 18.0746 56.5967 21.0615 58.0442 24.5562C59.4917 28.0508 59.8705 31.8962 59.1325 35.6061C58.3946 39.316 56.5731 42.7237 53.8984 45.3984C51.2237 48.0731 47.816 49.8946 44.1061 50.6325C40.3962 51.3704 36.5508 50.9917 33.0562 49.5442C29.5615 48.0967 26.5746 45.6454 24.4731 42.5003C22.3717 39.3552 21.25 35.6576 21.25 31.875C21.2562 26.8046 23.2731 21.9437 26.8584 18.3584C30.4437 14.7731 35.3046 12.7562 40.375 12.75ZM6.375 48.875C6.375 47.1842 7.04665 45.5627 8.24219 44.3672C9.43774 43.1716 11.0592 42.5 12.75 42.5H19.5797C21.5322 46.337 24.5081 49.5591 28.1783 51.8096C31.8485 54.0601 36.0698 55.2512 40.375 55.2512C44.6802 55.2512 48.9015 54.0601 52.5717 51.8096C56.2419 49.5591 59.2178 46.337 61.1702 42.5H119V57.375H6.375V48.875ZM119 114.75H12.75C11.0592 114.75 9.43774 114.078 8.24219 112.883C7.04665 111.687 6.375 110.066 6.375 108.375V102H119V114.75ZM119 97.75H6.375V61.625H119V65.875H104.125C102.434 65.875 100.813 66.5466 99.6172 67.7422C98.4216 68.9377 97.75 70.5592 97.75 72.25V85C97.75 86.6907 98.4216 88.3122 99.6172 89.5078C100.813 90.7033 102.434 91.375 104.125 91.375H119V97.75ZM129.625 87.125H104.125C103.561 87.125 103.021 86.9011 102.622 86.5026C102.224 86.1041 102 85.5636 102 85V72.25C102 71.6864 102.224 71.1459 102.622 70.7474C103.021 70.3489 103.561 70.125 104.125 70.125H129.625V87.125Z" fill="#0303DD"/>
<path d="M110.5 72.25C109.239 72.25 108.007 72.6239 106.958 73.3244C105.91 74.0249 105.093 75.0205 104.61 76.1854C104.128 77.3503 104.002 78.6321 104.247 79.8687C104.493 81.1053 105.101 82.2412 105.992 83.1328C106.884 84.0244 108.02 84.6315 109.256 84.8775C110.493 85.1235 111.775 84.9972 112.94 84.5147C114.104 84.0322 115.1 83.2151 115.801 82.1668C116.501 81.1184 116.875 79.8859 116.875 78.625C116.875 76.9342 116.203 75.3127 115.008 74.1172C113.812 72.9217 112.191 72.25 110.5 72.25ZM110.5 80.75C110.08 80.75 109.669 80.6254 109.319 80.3919C108.97 80.1584 108.698 79.8265 108.537 79.4382C108.376 79.0499 108.334 78.6226 108.416 78.2104C108.498 77.7982 108.7 77.4196 108.997 77.1224C109.295 76.8252 109.673 76.6228 110.085 76.5408C110.498 76.4588 110.925 76.5009 111.313 76.6618C111.701 76.8226 112.033 77.095 112.267 77.4444C112.5 77.7939 112.625 78.2047 112.625 78.625C112.625 79.1886 112.401 79.7291 112.003 80.1276C111.604 80.5261 111.064 80.75 110.5 80.75Z" fill="#0303DD"/>
<path d="M82.875 112.625H102C102.564 112.625 103.104 112.401 103.503 112.003C103.901 111.604 104.125 111.064 104.125 110.5C104.125 109.936 103.901 109.396 103.503 108.997C103.104 108.599 102.564 108.375 102 108.375H82.875C82.3114 108.375 81.7709 108.599 81.3724 108.997C80.9739 109.396 80.75 109.936 80.75 110.5C80.75 111.064 80.9739 111.604 81.3724 112.003C81.7709 112.401 82.3114 112.625 82.875 112.625Z" fill="#0303DD"/>
<path d="M108.375 112.625H110.5C111.064 112.625 111.604 112.401 112.003 112.003C112.401 111.604 112.625 111.064 112.625 110.5C112.625 109.936 112.401 109.396 112.003 108.997C111.604 108.599 111.064 108.375 110.5 108.375H108.375C107.811 108.375 107.271 108.599 106.872 108.997C106.474 109.396 106.25 109.936 106.25 110.5C106.25 111.064 106.474 111.604 106.872 112.003C107.271 112.401 107.811 112.625 108.375 112.625Z" fill="#0303DD"/>
</svg>
